<?xml version="1.0" encoding="utf-8"?>

<!DOCTYPE svg PUBLIC "-//W3C//DTD SVG 1.1//EN" "http://www.w3.org/Graphics/SVG/1.1/DTD/svg11.dtd">
<svg version="1.1" id="Layer_1" xmlns="http://www.w3.org/2000/svg" xmlns:xlink="http://www.w3.org/1999/xlink" x="0px" y="0px"
	 viewBox="0 0 1667.917 1667.917" enable-background="new 0 0 1667.917 1667.917" xml:space="preserve">
<path d="M1279.377,694.375c-53.711,9.871-88.835,48.357-119.032,92.213c17.424-45.789,34.593-91.003,66.576-121.31
	c33.395-30.123,85.9-41.197,139.328-10.758c92.016,56.957,146.041,193.018,267.709,168.685
	c-166.696,16.835-199.67-268.894-385.587-204.056c-51.21,19.058-79.118,63.09-101.243,111.55
	c9.198-48.118,18.255-95.642,44.531-131.096c27.369-35.095,76.96-55.66,135.344-34.789
	c100.524,40.12,177.334,164.731,292.934,119.635c-161.271,45.531-243.293-230.148-415.163-133.999
	c-47.108,27.653-66.948,75.852-80.326,127.409c0.707-48.987,1.374-97.357,21.082-136.81c21.154-39.869,66.815-68.06,127.246-57.762
	c105.963,22.053,203.244,131.432,309.258,66.95c-150.887,72.826-279.594-184.383-432.124-59.871
	c-41.612,35.432-52.774,86.369-56.989,139.488c-7.803-48.4-15.546-96.181-2.987-138.458c13.842-42.73,53.732-78.627,115.283-78.981
	c108.105,3.314,223.007,94.122,316.185,12.231c-135.761,97.793-307.625-132.732-435.956,16.076
	c-34.804,42.091-36.971,94.154-31.912,147.163c-16.083-46.298-31.995-91.981-26.975-135.734c6.154-44.068,38.81-86.68,99.817-97.8
	c107.036-15.505,235.971,53.956,313.505-42.86c-116.886,120.049-325.786-77.646-426.541,91.535
	c-26.969,47.502-20.052,99.165-5.859,150.505c-23.881-42.777-47.488-85-50.149-129.024c-1.592-44.468,23.168-92.102,81.318-113.647
	c102.779-33.877,241.734,12.196,301.3-96.649c-94.266,138.523-334.326-19.899-404.166,164.212
	c-18.31,51.46-2.531,101.133,20.359,149.224c-30.953-38.015-61.537-75.509-71.786-118.344
	c-9.287-43.506,6.813-94.719,60.348-126.041c95.326-51.205,240.175-29.967,279.94-147.5
	c-68.682,152.569-332.768,38.861-369.511,231.9c-9.097,53.865,15.066,100.04,45.959,143.422
	c-37.069-32.027-73.688-63.627-91.242-104.081c-16.945-41.833-9.189-94.932,37.544-134.605
	c84.905-66.921,231.33-71.269,250.073-193.871c-41.199,162.393-320.965,95.668-323.628,292.542
	c0.393,54.322,31.859,95.447,69.537,132.643c-55.256-32.998-108.79-64.245-121.478-120.606c-2.485-10.712-2.702-23.123-2.711-22.708
	c0.816-152.607,246.865-153.161,243.097-316.152c-11.013,148.038-224.82,145.799-264.258,277.333
	c-14.516,49.467-4.464,102.767,42.134,148.745c13.677,13.411,29.404,25.457,45.921,36.844
	c-60.217-22.93-118.465-44.397-140.77-97.753c-4.305-10.113-6.676-22.298-6.613-21.892
	C613.012,237.067,855.228,193.823,823.205,33.958c14.867,147.684-196.09,182.64-212.085,319.008
	c-5.719,51.355,13.547,102.047,67.323,139.168c15.8,10.833,33.38,19.966,51.624,28.311c-63.284-12.125-124.376-23.15-155.608-71.825
	c-5.998-9.214-10.448-20.804-10.314-20.411c-51.48-143.846,179.651-228.222,120.306-380.23
	c40.288,142.872-161.395,213.909-153.468,350.99c3.278,51.451,30.956,98.096,90.466,125.364
	c17.441,7.925,36.34,13.866,55.756,18.916c-64.428-0.951-126.507-1.201-165.717-43.712c-7.507-8.033-13.902-18.674-13.702-18.31
	c-75.671-132.722,137.29-255.95,52.452-395.344c64.489,133.715-121.801,238.675-90.188,372.307
	c12.162,50.097,47.517,91.23,110.861,107.75c18.548,4.775,38.204,7.342,58.223,8.944c-63.625,10.251-124.817,20.792-170.819-14.269
	c-8.787-6.607-16.933-15.976-16.673-15.653c-97.545-117.538,90.739-275.925-16.996-398.446
	c86.707,120.462-78.495,256.222-24.167,382.312c20.675,47.22,62.634,81.593,127.887,86.862c19.099,1.482,38.892,0.601,58.866-1.295
	c-60.869,21.142-119.289,42.141-170.676,15.603c-9.801-4.981-19.45-12.793-19.138-12.52
	c-116.388-98.738,41.365-287.555-85.927-389.442c106.305,103.57-32.807,265.965,42.588,380.7
	c28.561,42.913,75.85,69.477,141.028,63.335c19.064-1.857,38.411-6.166,57.765-11.505c-56.279,31.393-110.173,62.225-165.392,45.012
	c-10.515-3.203-21.377-9.222-21.021-9.006c-131.787-77.042-9.179-290.357-152.247-368.604
	c122.677,83.539,13.874,267.619,108.048,367.521c35.579,37.302,86.763,55.25,149.883,37.884c18.45-5.139,36.758-12.746,54.899-21.37
	c-49.976,40.692-97.699,80.42-155.072,73.057c-10.911-1.328-22.653-5.369-22.266-5.219
	c-143.151-52.985-59.47-284.357-213.942-336.567c135.323,60.97,60.131,261.143,170.226,343.175
	c41.519,30.56,95.042,39.342,154.185,11.281c17.282-8.266,33.982-18.926,50.332-30.554c-42.143,48.744-82.237,96.14-140.008,98.85
	c-10.978,0.587-23.241-1.354-22.834-1.273C197.349,837.409,239.841,595.058,78.526,570.447
	c143.88,36.549,104.548,246.725,227.232,308.402c46.193,22.884,100.429,22.242,153.801-15.664
	c15.58-11.139,30.18-24.544,44.273-38.846c-33.042,55.327-64.299,108.975-120.728,121.677c-10.708,2.484-23.124,2.702-22.708,2.711
	C207.728,947.905,207.286,701.86,44.245,705.63c148.046,11.013,145.798,224.82,277.333,264.258
	c49.47,14.517,102.768,4.462,148.745-42.134c13.409-13.675,25.459-29.412,36.854-45.943
	c-22.934,60.224-44.401,118.484-97.764,140.792c-10.113,4.305-22.301,6.676-21.892,6.613
	c-150.469,25.69-193.679-216.527-353.563-184.505c147.694-14.864,182.631,196.089,319.008,212.085
	c51.236,5.706,101.98-13.449,139.168-67.323c10.834-15.801,19.968-33.385,28.314-51.631
	c-12.126,63.286-23.151,124.381-71.828,155.616c-9.212,5.996-20.806,10.448-20.411,10.314
	c-143.707,51.43-228.34-179.601-380.23-120.306c142.871-40.283,213.906,161.395,350.99,153.468
	c51.452-3.278,98.097-30.956,125.364-90.466c7.923-17.437,13.865-36.345,18.918-55.777c-0.952,64.435-1.198,126.523-43.714,165.737
	c-8.033,7.506-18.674,13.902-18.31,13.702c-132.586,75.59-256.072-137.213-395.345-52.452
	c133.692-64.476,238.695,121.796,372.307,90.188c50.114-12.166,91.235-47.534,107.75-110.861
	c4.775-18.546,7.343-38.184,8.946-58.176c10.255,63.602,20.792,124.768-14.27,170.772c-6.609,8.789-15.976,16.933-15.653,16.673
	c-117.492,97.515-275.961-90.705-398.446,16.996c120.475-86.712,256.21,78.499,382.312,24.167
	c47.225-20.677,81.593-62.638,86.862-127.887c1.482-19.102,0.6-38.897-1.295-58.873c21.142,60.871,42.141,119.295,15.603,170.683
	c-4.985,9.809-12.792,19.449-12.52,19.138c-98.737,116.379-287.558-41.356-389.442,85.927
	c103.585-106.321,265.948,32.819,380.7-42.588c42.935-28.575,69.474-75.875,63.335-141.028
	c-1.857-19.064-6.166-38.411-11.506-57.766c31.393,56.28,62.224,110.175,45.012,165.392c-3.203,10.515-9.222,21.377-9.006,21.021
	c-77.089,131.866-290.324,9.11-368.604,152.248c83.55-122.692,267.607-13.861,367.521-108.048
	c37.375-35.649,55.223-86.862,37.884-149.883c-5.14-18.454-12.737-36.75-21.348-54.87c40.685,49.964,80.397,97.678,73.035,155.044
	c-1.328,10.911-5.369,22.653-5.219,22.266c-52.974,143.137-284.359,59.483-336.567,213.942
	c60.984-135.351,261.128-60.112,343.175-170.226c30.572-41.537,39.333-95.061,11.281-154.185
	c-8.267-17.284-18.929-33.986-30.558-50.338c48.746,42.146,96.145,82.243,98.855,140.014c0.587,10.979-1.353,23.238-1.273,22.834
	c-27.323,150.181-269.711,107.942-294.303,269.136c36.543-143.874,246.726-104.549,308.402-227.232
	c22.884-46.191,22.243-100.427-15.664-153.801c-11.296-15.799-24.919-30.59-39.446-44.864
	c42.144,25.168,83.785,49.956,108.099,86.749c23.953,38.258,25.537,91.889-13.6,139.08
	c-72.03,80.676-215.443,110.348-212.609,234.35c12.368-167.054,299.469-149.98,267.912-344.295
	c-9.874-53.729-48.384-88.86-92.261-119.064c45.793,17.418,91.021,34.589,121.357,66.608c30.232,33.515,41.1,86.059,10.758,139.328
	c-56.958,92.017-193.02,146.039-168.685,267.709c-16.839-166.728,268.907-199.633,204.056-385.587
	c-19.055-51.198-63.082-79.108-111.539-101.236c48.119,9.2,95.64,18.256,131.085,44.524c35.017,27.308,55.692,76.872,34.788,135.344
	c-40.085,100.447-164.715,177.372-119.635,292.933c-45.511-161.201,230.106-243.367,133.999-415.163
	c-27.659-47.117-75.874-66.957-127.445-80.335c48.992,0.706,97.372,1.372,136.846,21.091
	c39.223,20.811,68.194,66.028,57.762,127.247c-22.032,105.861-131.405,203.289-66.95,309.258
	c-72.836-150.889,184.394-279.592,59.871-432.124c-35.415-41.593-86.322-52.763-139.413-56.983
	c48.363-7.81,96.11-15.55,138.384-2.993c42.339,13.715,78.622,53.277,78.981,115.283c-3.317,108.175-94.143,222.976-12.231,316.185
	c-97.928-135.949,133.032-307.357-16.076-435.956c-42.103-34.814-94.177-36.973-147.196-31.907
	c46.271-16.09,91.95-32.004,135.767-26.979c43.974,6.141,86.664,38.72,97.799,99.817c15.508,106.995-53.958,235.961,42.86,313.505
	c-120.055-116.892,77.659-325.788-91.535-426.541c-47.494-26.966-99.141-20.059-150.465-5.872
	c42.803-23.877,85.031-47.48,128.985-50.135c44.475-1.592,92.101,23.173,113.647,81.318c33.877,102.788-12.194,241.734,96.648,301.3
	c-138.507-94.25,19.873-334.33-164.212-404.166c-51.475-18.315-101.158-2.524-149.259,20.376
	c37.978-30.949,75.464-61.534,118.379-71.802c44.183-9.432,95.089,7.441,126.041,60.348c51.185,95.284,29.985,240.187,147.5,279.94
	c-152.849-68.799-38.386-332.684-231.9-369.511c-53.862-9.097-100.044,15.073-143.434,45.971
	c32.029-37.072,63.632-73.698,104.094-91.254c41.686-16.885,94.814-9.329,134.605,37.544
	c66.963,84.961,71.233,231.324,193.871,250.074c-162.481-41.223-95.56-320.964-292.542-323.628
	c-54.606,0.394-95.881,32.198-133.238,70.145c25.113-42.072,49.873-83.62,86.631-107.908c37.72-23.617,91.357-25.982,139.08,13.6
	c80.623,71.971,110.378,215.446,234.35,212.609C1456.594,949.917,1473.719,662.813,1279.377,694.375z"/>
</svg>
