<svg width="40" height="44" viewBox="0 0 40 44" xmlns="http://www.w3.org/2000/svg">
<path fill-rule="evenodd" clip-rule="evenodd" d="M38.8091 35.9774C38.0441 36.7862 37.0003 37.2629 35.8966 37.3078L29.9836 38.8116L16.163 43.757H16.1203C14.8638 44.1671 13.4984 44.0549 12.3233 43.445C11.1481 42.8352 10.2592 41.7774 9.85115 40.5035L0.247971 10.4985C0.0423094 9.86153 -0.0366491 9.18949 0.0156792 8.52135C0.0680075 7.8532 0.25058 7.20226 0.5528 6.60631C0.855019 6.01036 1.27086 5.48126 1.7762 5.04974C2.28153 4.61822 2.86629 4.29286 3.49652 4.09256C4.90942 3.60543 6.31087 3.08472 7.6997 2.53085C8.09569 1.94094 8.61017 1.44272 9.20933 1.0689C9.80849 0.695072 10.4788 0.454104 11.1762 0.361817C12.1878 0.217214 13.3989 0.173833 14.6385 0.130453L15.1087 0.115992C16.5335 0.0726116 19.1409 0.000310349 20.5657 0.000310349H35.7256C36.8592 0.000310349 37.9464 0.457357 38.7481 1.2709C39.5497 2.08445 40 3.18786 40 4.33839V32.9697C40.0009 34.0908 39.5741 35.1687 38.8091 35.9774ZM19.5582 3.33035C19.8254 3.05917 20.1878 2.90682 20.5657 2.90682H35.7256V2.89236C36.1035 2.89236 36.4659 3.04471 36.7331 3.31589C37.0003 3.58707 37.1504 3.95488 37.1504 4.33839V32.9841C37.1504 33.3677 37.0003 33.7355 36.7331 34.0066C36.4659 34.2778 36.1035 34.4302 35.7256 34.4302H20.5657C20.1878 34.4302 19.8254 34.2778 19.5582 34.0066C19.291 33.7355 19.1409 33.3677 19.1409 32.9841V4.35285C19.1409 3.96934 19.291 3.60153 19.5582 3.33035ZM14.7382 3.0225C13.4844 3.06588 12.4158 3.10926 11.5467 3.22495C11.2635 3.26202 10.9904 3.35632 10.7437 3.50228C10.497 3.64824 10.2817 3.84289 10.1103 4.07474C9.93898 4.30659 9.81517 4.57093 9.74618 4.85216C9.6772 5.13339 9.66444 5.4258 9.70867 5.71211L14.1968 36.9463C14.3678 38.1031 15.4221 38.9128 16.5762 38.7682L23.2586 37.3222H20.5514C19.4178 37.3222 18.3306 36.8652 17.529 36.0516C16.7274 35.2381 16.277 34.1347 16.277 32.9841V4.33839C16.2826 3.86535 16.3645 3.39643 16.5192 2.9502L15.2084 3.00804L14.7382 3.0225ZM6.88756 6.117L11.0052 34.7483L2.9551 9.60192C2.86701 9.32762 2.83373 9.03825 2.85719 8.75074C2.88066 8.46322 2.9604 8.18335 3.09176 7.9275C3.22311 7.67165 3.40344 7.44497 3.62218 7.26072C3.84092 7.07647 4.09367 6.93836 4.36565 6.85447C4.93132 6.68019 5.54712 6.45504 6.14705 6.23569C6.39333 6.14564 6.63694 6.05657 6.87331 5.97239L6.88756 6.117Z"/>
</svg>
