<svg width="19" height="20" viewBox="0 0 19 20" xmlns="http://www.w3.org/2000/svg">
<path d="M13.2581 18H5.25806C4.46241 18 3.69935 17.6839 3.13674 17.1213C2.57413 16.5587 2.25806 15.7956 2.25806 15V5C2.25806 4.73478 2.1527 4.48043 1.96516 4.29289C1.77763 4.10536 1.52327 4 1.25806 4C0.99284 4 0.738486 4.10536 0.55095 4.29289C0.363413 4.48043 0.258057 4.73478 0.258057 5V15C0.258057 16.3261 0.784841 17.5979 1.72252 18.5355C2.6602 19.4732 3.93197 20 5.25806 20H13.2581C13.5233 20 13.7776 19.8946 13.9652 19.7071C14.1527 19.5196 14.2581 19.2652 14.2581 19C14.2581 18.7348 14.1527 18.4804 13.9652 18.2929C13.7776 18.1054 13.5233 18 13.2581 18ZM7.25806 11C7.25806 11.2652 7.36341 11.5196 7.55095 11.7071C7.73849 11.8946 7.99284 12 8.25806 12H13.2581C13.5233 12 13.7776 11.8946 13.9652 11.7071C14.1527 11.5196 14.2581 11.2652 14.2581 11C14.2581 10.7348 14.1527 10.4804 13.9652 10.2929C13.7776 10.1054 13.5233 10 13.2581 10H8.25806C7.99284 10 7.73849 10.1054 7.55095 10.2929C7.36341 10.4804 7.25806 10.7348 7.25806 11ZM18.2581 6.94C18.2476 6.84813 18.2275 6.75763 18.1981 6.67V6.58C18.15 6.47718 18.0858 6.38267 18.0081 6.3L12.0081 0.3C11.9254 0.222216 11.8309 0.158081 11.7281 0.11C11.6982 0.10576 11.6679 0.10576 11.6381 0.11C11.5365 0.0517412 11.4243 0.0143442 11.3081 0H7.25806C6.46241 0 5.69935 0.316071 5.13674 0.87868C4.57413 1.44129 4.25806 2.20435 4.25806 3V13C4.25806 13.7956 4.57413 14.5587 5.13674 15.1213C5.69935 15.6839 6.46241 16 7.25806 16H15.2581C16.0537 16 16.8168 15.6839 17.3794 15.1213C17.942 14.5587 18.2581 13.7956 18.2581 13V7C18.2581 7 18.2581 7 18.2581 6.94ZM12.2581 3.41L14.8481 6H13.2581C12.9928 6 12.7385 5.89464 12.551 5.70711C12.3634 5.51957 12.2581 5.26522 12.2581 5V3.41ZM16.2581 13C16.2581 13.2652 16.1527 13.5196 15.9652 13.7071C15.7776 13.8946 15.5233 14 15.2581 14H7.25806C6.99284 14 6.73849 13.8946 6.55095 13.7071C6.36341 13.5196 6.25806 13.2652 6.25806 13V3C6.25806 2.73478 6.36341 2.48043 6.55095 2.29289C6.73849 2.10536 6.99284 2 7.25806 2H10.2581V5C10.2608 5.34114 10.3216 5.67933 10.4381 6H8.25806C7.99284 6 7.73849 6.10536 7.55095 6.29289C7.36341 6.48043 7.25806 6.73478 7.25806 7C7.25806 7.26522 7.36341 7.51957 7.55095 7.70711C7.73849 7.89464 7.99284 8 8.25806 8H16.2581V13Z"/>
</svg>
