<svg width="44" height="44" viewBox="0 0 44 44" fill="none" xmlns="http://www.w3.org/2000/svg">
<path d="M22.031 0C19.1459 0 16.2892 0.569022 13.6238 1.67458C10.9584 2.78013 8.53652 4.40057 6.4965 6.44337C2.37651 10.569 0.0619228 16.1645 0.0619228 21.999C0.042717 27.0789 1.79922 32.0054 5.02693 35.9244L0.633118 40.3242C0.32828 40.6336 0.12178 41.0264 0.0396725 41.4532C-0.0424349 41.8799 0.0035302 42.3215 0.171768 42.7221C0.354238 43.1179 0.650043 43.4505 1.02163 43.6777C1.39322 43.9049 1.82384 44.0164 2.25883 43.9981H22.031C27.8575 43.9981 33.4454 41.6803 37.5654 37.5547C41.6854 33.4291 44 27.8335 44 21.999C44 16.1645 41.6854 10.569 37.5654 6.44337C33.4454 2.31775 27.8575 0 22.031 0ZM22.031 39.5982H7.55336L9.59649 37.5523C10.0057 37.1402 10.2353 36.5826 10.2353 36.0014C10.2353 35.4202 10.0057 34.8627 9.59649 34.4505C6.71983 31.5731 4.92845 27.786 4.52755 23.7343C4.12665 19.6826 5.14104 15.6171 7.39788 12.2304C9.65473 8.84369 13.0144 6.34531 16.9045 5.16091C20.7946 3.97652 24.9745 4.17939 28.732 5.73496C32.4895 7.29053 35.5921 10.1026 37.5113 13.692C39.4305 17.2814 40.0475 21.426 39.2572 25.4199C38.4668 29.4137 36.3181 33.0096 33.177 35.595C30.036 38.1803 26.0969 39.595 22.031 39.5982Z" fill="#888CCD"/>
<path d="M16.5303 19.5131C17.0348 19.7999 17.632 19.8753 18.1918 19.7228C18.7515 19.5703 19.2283 19.2024 19.5181 18.6992C19.7579 18.2754 20.1314 17.9433 20.5801 17.7549C21.0287 17.5666 21.527 17.5327 21.9969 17.6585C22.4669 17.7843 22.8818 18.0628 23.1767 18.4502C23.4716 18.8376 23.6297 19.312 23.6263 19.7991C23.6263 20.3826 23.3949 20.9421 22.9829 21.3547C22.5709 21.7673 22.0121 21.999 21.4294 21.999C20.8468 21.999 20.288 22.2308 19.876 22.6434C19.464 23.0559 19.2325 23.6155 19.2325 24.1989C19.2325 24.7824 19.464 25.3419 19.876 25.7545C20.288 26.1671 20.8468 26.3988 21.4294 26.3988C22.5862 26.3981 23.7223 26.0925 24.7238 25.5128C25.7252 24.9331 26.5566 24.0996 27.1345 23.0962C27.7124 22.0928 28.0164 20.9548 28.0159 19.7965C28.0154 18.6382 27.7106 17.5004 27.1319 16.4974C26.5532 15.4945 25.7211 14.6617 24.7192 14.0828C23.7173 13.5039 22.5809 13.1992 21.4241 13.1994C20.2674 13.1996 19.1311 13.5046 18.1294 14.0839C17.1277 14.6631 16.2958 15.4961 15.7175 16.4993C15.5722 16.7504 15.478 17.0277 15.4402 17.3154C15.4025 17.6031 15.422 17.8955 15.4975 18.1756C15.5731 18.4557 15.7032 18.7181 15.8805 18.9477C16.0577 19.1772 16.2786 19.3694 16.5303 19.5131ZM22.2642 28.7527C21.8643 28.5755 21.4206 28.5219 20.99 28.5987L20.5946 28.7307L20.1992 28.9287L19.8696 29.2147C19.672 29.4174 19.5154 29.6565 19.4083 29.9187C19.2784 30.1931 19.218 30.4953 19.2325 30.7986C19.2261 31.092 19.2784 31.3837 19.3863 31.6566C19.4999 31.9206 19.6641 32.1598 19.8696 32.3606C20.0749 32.5645 20.3184 32.7258 20.586 32.8352C20.8537 32.9447 21.1403 33.0002 21.4294 32.9985C22.0121 32.9985 22.5709 32.7668 22.9829 32.3542C23.3949 31.9416 23.6263 31.3821 23.6263 30.7986C23.6338 30.5101 23.5736 30.2238 23.4506 29.9627C23.2145 29.4341 22.7921 29.0111 22.2642 28.7747V28.7527Z" fill="#888CCD"/>
</svg>
